# xmcd
#
# Track frame offsets: 
#        150
#        11261
#        24539
#        34869
#        48210
#        58863
#        73094
#        86354
#        97514
#        109080
#        123438
#        133537
#        143956
#        156886
#
# Disc length: 2277 seconds
#
# Revision: 0
# Processed by: cddbd v1.5.2PL0 Copyright (c) Steve Scherf et al.
# Submitted via: ExactAudioCopy v0.95b3
#
DISCID=af08e30e
DTITLE=The Hollies  - Hollies Greatest' - MONO version - PMC 7057  FLA
DTITLE=C
DYEAR=1900
DGENRE=
TTITLE0=I Can't Let Go
TTITLE1=Bus Stop
TTITLE2=We're Through
TTITLE3=Carrie Anne
TTITLE4=Here I Go Again
TTITLE5=King Midas in Reverse
TTITLE6=Yes I Will
TTITLE7=I'm Alive
TTITLE8=Just One Look
TTITLE9=On a Carrousel
TTITLE10=Stay
TTITLE11=Look Through Any Window
TTITLE12=Stop Stop Stop
TTITLE13=King Midas in Reverse
EXTD=
EXTT0=
EXTT1=
EXTT2=
EXTT3=
EXTT4=
EXTT5=
EXTT6=
EXTT7=
EXTT8=
EXTT9=
EXTT10=
EXTT11=
EXTT12=
EXTT13=
PLAYORDER=
